<svg width="115" height="99" viewBox="0 0 115 99" fill="none" xmlns="http://www.w3.org/2000/svg">
<path d="M21.5032 38.8255C21.5032 40.3583 20.3837 41.4852 18.7161 41.4852C17.0485 41.4852 16.1611 40.127 16.1611 38.5942C16.1611 37.0614 17.2807 36.0502 18.9483 36.0502C20.6159 36.0502 21.5032 37.2927 21.5032 38.8255Z" fill="currentColor"/>
<path fill-rule="evenodd" clip-rule="evenodd" d="M68.1887 68.4293L75.8535 60.9128L78.5245 58.1375C78.5245 58.1375 76.118 57.2917 74.576 56.7498C72.7179 56.1716 65.9822 54.437 65.9822 54.437L57.6206 52.2399L55.0657 46.5736L82.5892 51.7773C82.5892 51.7773 85.0628 52.3845 86.6538 52.2399C88.3108 52.0892 89.7182 51.3979 91.5314 50.5053C95.5931 48.5059 100.358 42.9888 100.358 42.9888C100.358 42.9888 103.782 39.3462 105.932 36.9756C108.045 34.6451 111.158 30.8468 111.158 30.8468C111.158 30.8468 114.526 25.9899 114.758 24.8336C114.99 23.6772 115.287 22.0486 114.41 20.6706C113.085 18.5891 109.532 18.3578 109.532 18.3578C109.532 18.3578 107.337 18.3203 105.932 18.3578C104.343 18.4002 101.867 18.5891 101.867 18.5891L93.9702 19.7455C93.9702 19.7455 95.5773 15.5016 96.2929 12.6915C96.9619 10.0643 97.5703 5.86883 97.5703 5.86883C97.5703 5.86883 98.4994 2.74659 95.2477 0.665094C91.996 -1.4164 87.0022 2.05276 87.0022 2.05276C87.0022 2.05276 74.3774 10.1795 66.679 15.9294C57.2258 22.9898 43.4524 35.241 43.4524 35.241C43.4524 35.241 40.9289 34.4914 39.2716 34.2003C37.3428 33.8614 34.2779 33.7377 34.2779 33.7377C34.2779 33.7377 32.7738 30.9553 31.2584 29.6904C29.8128 28.4837 26.9615 27.4932 26.9615 27.4932C26.9615 27.4932 23.1291 26.4525 20.6903 27.262C18.2515 28.0714 17.4386 28.6496 17.4386 28.6496C17.4386 28.6496 17.1951 25.5155 16.7418 23.5615C16.2123 21.2794 14.7675 17.8952 14.7675 17.8952L11.8642 13.1541L9.07701 9.80054C9.07701 9.80054 7.79955 8.72157 6.63822 9.45363C5.47689 10.1857 6.05755 11.6508 6.05755 11.6508L9.54154 15.9294C9.54154 15.9294 11.4043 18.3391 12.2126 20.0924C13.3416 22.5411 13.8385 26.7994 13.8385 26.7994C13.8385 26.7994 12.2017 24.1658 10.5867 22.4051C9.76492 21.5092 8.84895 20.5257 7.91568 19.7455C6.94255 18.9318 5.24462 17.8952 5.24462 17.8952L2.22516 16.2763C2.22516 16.2763 1.2961 15.6981 0.367038 16.7389C-0.458797 17.664 0.367037 19.0516 0.367037 19.0516L3.50262 20.9018C3.50262 20.9018 7.20723 23.561 9.07701 25.7587C10.9073 27.9099 12.9094 31.8875 12.9094 31.8875C12.9094 31.8875 11.1809 33.9657 10.3545 35.4723C8.96551 38.0045 8.14794 42.5262 8.14794 42.5262C8.14794 42.5262 6.75435 49.1176 8.14794 50.274C9.54154 51.4304 14.6514 51.7773 14.6514 51.7773C14.6514 51.7773 19.3409 51.6535 22.2 50.8522C24.4702 50.216 27.7744 48.5395 27.7744 48.5395C27.7744 48.5395 28.3136 49.9603 28.7035 50.8522C29.165 51.9079 29.9809 53.5119 29.9809 53.5119L25.5679 61.144L14.9998 64.3819C14.9998 64.3819 14.0707 65.0758 14.4191 66.2321C14.7675 67.3885 16.1611 67.3885 16.1611 67.3885L27.7744 64.035L32.4197 56.2872C32.4197 56.2872 33.9855 57.5771 35.0908 58.2531C36.2142 58.9401 38.1103 59.7564 38.1103 59.7564L36.7167 69.5857L28.5873 78.6055C28.5873 78.6055 27.7744 80.1088 28.5873 80.9182C29.4003 81.7277 30.7939 81.1495 30.7939 81.1495L40.0845 71.089L41.4781 60.9128C41.4781 60.9128 43.0981 61.3681 44.1492 61.6066C45.0511 61.8113 46.4718 62.0691 46.4718 62.0691L46.2396 75.4832L52.2785 92.0195C52.2785 92.0195 53.2075 93.465 54.3689 93.1759C55.5302 92.8868 55.6463 91.3257 55.6463 91.3257L49.7236 75.2519L49.9558 62.763L56.5754 74.7894L58.4335 77.9116L60.9884 75.2519L68.1887 68.4293ZM72.1372 59.6407L58.9606 72.5923L56.227 67.6198L52.8591 60.9128L57.1561 55.8247L64.7047 57.6749L72.1372 59.6407ZM69.35 18.3578L47.1686 36.86C47.1686 36.86 60.4402 30.1972 69.35 26.915C77.3028 23.9855 89.7894 20.6706 89.7894 20.6706C89.7894 20.6706 91.996 15.1199 92.6927 12.6915C93.3895 10.2631 93.9702 6.10011 93.9702 6.10011C93.9702 6.10011 94.2357 4.01862 93.5057 3.55606C92.0457 2.63095 87.0022 5.86883 87.0022 5.86883L69.35 18.3578ZM51.4655 40.7917C50.9376 40.1491 49.9558 39.2884 49.9558 39.2884C49.9558 39.2884 62.2245 33.396 70.3952 30.3842C77.8344 27.642 82.0215 26.5216 89.7894 24.371C92.8089 23.5351 93.9702 23.3303 93.9702 23.3303C93.9702 23.3303 100.163 22.0422 104.19 21.9426C106.914 21.8752 110.401 21.2125 111.158 22.2895C111.971 23.4459 110.809 25.0648 110.809 25.0648C110.809 25.0648 109.179 27.6498 108.022 29.2278C106.464 31.3526 103.725 34.4316 103.725 34.4316L97.4542 40.7917C97.4542 40.7917 93.3627 45.4356 89.7894 47.2674C88.6511 47.851 87.8008 48.3309 86.5377 48.5395C85.1442 48.7695 82.8215 48.3082 82.8215 48.3082L52.6269 42.5262C52.6269 42.5262 51.9833 41.4218 51.4655 40.7917ZM54.3689 53.5119L49.9558 58.9469C49.9558 58.9469 47.4132 58.7844 45.0782 58.2531C42.7433 57.7218 39.2716 56.2872 39.2716 56.2872C39.2716 56.2872 35.202 54.3858 33.4649 52.2399C31.8467 50.2407 30.7939 46.2267 30.7939 46.2267C30.7939 46.2267 33.0666 43.8297 33.9295 41.9481C34.6879 40.2941 35.0908 37.4382 35.0908 37.4382C35.0908 37.4382 38.2525 37.5304 40.2006 38.0163C42.546 38.6013 43.9017 39.0766 45.8912 40.4448C48.5669 42.2849 49.5097 44.0591 51.2333 46.8049C52.7712 49.2548 54.3689 53.5119 54.3689 53.5119ZM16.1611 48.5395C14.1478 48.5924 11.5158 48.5395 11.0513 47.8456C10.5867 47.1518 11.5158 42.5262 11.5158 42.5262C11.5158 42.5262 12.2022 38.8743 13.3739 36.86C14.3898 35.1137 14.7675 34.5472 16.7418 32.9283C18.716 31.3093 22.2 30.6155 22.2 30.6155C22.2 30.6155 25.4822 30.4668 27.3099 31.3093C28.9171 32.0502 29.931 32.6602 30.7939 34.2003C31.7701 35.9427 31.8391 37.0912 31.2584 39.2884C30.6777 41.4855 29.6115 42.8737 27.7744 44.4921C25.8146 46.2187 21.7355 47.3831 21.7355 47.3831C21.7355 47.3831 18.384 48.481 16.1611 48.5395Z" fill="currentColor"/>
<path d="M75.8535 60.9128L68.1887 68.4293L60.9884 75.2519L58.4335 77.9116L61.6852 82.5372L65.6338 87.6253L71.7888 93.2916C71.7888 93.2916 76.3859 96.6875 79.802 97.8015C82.4662 98.6703 84.0893 99.1502 86.8861 98.9578C89.0808 98.8069 90.4056 98.6055 92.3443 97.5702C94.0178 96.6766 94.868 95.9192 96.0606 94.4479C97.875 92.2097 98.0958 90.4548 98.6155 87.6253C99.4051 83.3264 97.9187 79.1837 97.3426 76.5375L97.3381 76.524C96.574 74.2636 95.8557 72.5229 94.8993 70.893C94.0385 69.426 92.9848 68.0488 91.5314 66.4634C89.268 63.9944 87.7375 62.7551 84.7957 61.144C82.473 59.872 80.1504 58.8313 80.1504 58.8313C79.6002 58.5928 78.5245 58.1375 78.5245 58.1375L75.8535 60.9128Z" fill="#28101F"/>
<path d="M75.8535 60.9128L68.1887 68.4293L60.9884 75.2519L58.4335 77.9116L61.6852 82.5372L65.6338 87.6253L71.7888 93.2916C71.7888 93.2916 76.3859 96.6875 79.802 97.8015C82.4662 98.6703 84.0893 99.1502 86.8861 98.9578C89.0808 98.8069 90.4056 98.6055 92.3443 97.5702C94.0178 96.6766 94.868 95.9192 96.0606 94.4479C97.875 92.2097 98.0958 90.4548 98.6155 87.6253C99.4051 83.3264 97.9187 79.1837 97.3426 76.5375L97.3381 76.524C96.574 74.2636 95.8557 72.5229 94.8993 70.893C94.0385 69.426 92.9848 68.0488 91.5314 66.4634C89.268 63.9944 87.7375 62.7551 84.7957 61.144C82.473 59.872 80.1504 58.8313 80.1504 58.8313C79.6002 58.5928 78.5245 58.1375 78.5245 58.1375L75.8535 60.9128Z" fill="#BFF73E"/>
<path d="M79.5536 60.2072V60.2062C79.5556 60.2071 79.558 60.209 79.5604 60.2101C79.5767 60.2174 79.6013 60.2286 79.6337 60.2433C79.699 60.273 79.7958 60.3178 79.9198 60.3751C80.1678 60.4898 80.5237 60.6558 80.951 60.8615C81.5937 61.1708 82.3938 61.5664 83.2303 62.006L84.0751 62.4591C86.514 63.7948 87.8926 64.83 89.6464 66.6466L90.4257 67.4767C91.7071 68.8745 92.6392 70.0745 93.3964 71.3038L93.7108 71.8331C94.4392 73.1064 95.0322 74.4825 95.6503 76.2306L95.9169 77.004L95.9218 77.0177C97.2103 80.8301 97.819 84.069 97.4579 86.8116L97.3719 87.3536C96.8994 89.9265 96.5226 91.3689 95.1776 93.1427L94.8954 93.5031C93.9457 94.6746 93.2911 95.2948 92.1561 95.9581L91.6376 96.2462C90.1737 97.0279 89.1599 97.2608 87.5253 97.4034L86.7831 97.4611C84.5972 97.6114 83.2548 97.3214 81.1971 96.674L80.2675 96.3751C78.7438 95.8783 76.8697 94.8345 75.3114 93.8575C74.5472 93.3784 73.885 92.9325 73.4149 92.6066C73.1804 92.444 72.9944 92.3115 72.868 92.2208C72.8149 92.1827 72.7722 92.1516 72.7411 92.129L66.7421 86.6066L62.8925 81.6466L60.371 78.0587L62.0419 76.3185L69.2206 69.5177L69.2391 69.4991L76.9032 61.9835L76.9393 61.9474L76.953 61.9327L78.8876 59.922C79.1294 60.0252 79.3717 60.1283 79.5536 60.2072Z" stroke="#70EF0F" stroke-width="3"/>
</svg>
